<?xml version="1.0" standalone="no"?>
<!DOCTYPE svg PUBLIC "-//W3C//DTD SVG 20010904//EN"
 "http://www.w3.org/TR/2001/REC-SVG-20010904/DTD/svg10.dtd">
<svg version="1.0" xmlns="http://www.w3.org/2000/svg"
 width="2000.000000pt" height="2000.000000pt" viewBox="0 0 2000.000000 2000.000000"
 preserveAspectRatio="xMidYMid meet">

<g transform="translate(0.000000,2000.000000) scale(0.100000,-0.100000)"
fill="#ffffff" stroke="none">
<path d="M1793 14689 c3 -8 205 -359 449 -781 l443 -768 1375 -794 1375 -794
5 -402 5 -402 170 -98 170 -98 3 -405 2 -405 -24 -16 c-32 -20 -72 -90 -81
-138 -17 -93 49 -209 140 -243 64 -25 151 -17 204 18 122 81 137 255 30 351
l-39 36 0 334 0 334 163 -94 162 -93 3 916 c1 504 -1 920 -5 924 -7 6 -4478
2590 -4536 2621 -16 8 -19 7 -14 -3z"/>
<path d="M7574 10967 c-2 -7 -3 -576 -1 -1263 3 -1247 3 -1249 25 -1346 29
-126 75 -256 119 -338 149 -275 415 -496 733 -608 204 -71 410 -103 675 -103
270 1 431 24 637 91 431 142 749 453 862 842 56 194 56 190 56 1517 l0 1221
-460 0 -460 0 0 -1149 c0 -762 -4 -1176 -11 -1228 -38 -276 -200 -456 -459
-509 -102 -20 -294 -15 -380 11 -198 60 -333 202 -393 412 l-22 78 -3 1193 -3
1192 -455 0 c-367 0 -456 -3 -460 -13z"/>
<path d="M12115 10968 c-13 -36 -1199 -3566 -1203 -3581 -4 -16 21 -17 464
-15 l468 3 83 285 c46 157 97 333 114 393 l32 107 588 0 587 0 14 -47 c8 -27
59 -204 113 -395 l100 -348 488 0 c268 0 487 2 487 4 0 3 -1141 3399 -1190
3544 l-22 62 -559 0 c-439 0 -561 -3 -564 -12z m565 -795 c5 -21 95 -333 199
-693 l188 -655 -405 -3 c-223 -1 -406 -1 -408 1 -2 2 166 588 367 1280 18 59
35 107 40 107 4 0 13 -17 19 -37z"/>
<path d="M14797 10973 c-4 -3 -7 -816 -7 -1805 l0 -1798 440 0 440 0 0 1055
c0 580 4 1055 8 1055 4 0 352 -475 772 -1055 l765 -1054 368 -1 367 0 -2 1803
-3 1802 -435 0 -435 0 -3 -1047 c-1 -577 -5 -1048 -10 -1048 -4 0 -351 473
-772 1050 l-765 1050 -361 0 c-198 0 -364 -3 -367 -7z"/>
<path d="M5680 8675 l0 -235 55 0 55 0 0 -270 c0 -148 -2 -270 -4 -270 -2 0
-79 43 -170 95 -91 52 -167 95 -170 95 -2 0 -6 -161 -9 -357 -4 -285 -8 -372
-21 -428 -75 -320 -244 -594 -486 -787 -274 -220 -610 -323 -970 -297 -467 34
-894 320 -1110 743 -106 210 -141 363 -149 666 l-6 225 -420 243 c-231 134
-437 252 -458 263 l-39 20 5 -513 c5 -565 8 -602 73 -856 162 -636 610 -1188
1199 -1477 213 -104 406 -167 645 -210 145 -26 491 -32 659 -11 252 33 482
102 716 215 516 252 920 688 1128 1221 91 231 137 445 144 665 l5 160 -166 94
-166 93 0 339 0 338 58 3 57 3 0 230 0 230 -227 3 -228 2 0 -235z"/>
</g>
</svg>
